<svg width="42" height="43" viewBox="0 0 110 111" fill="none" xmlns="http://www.w3.org/2000/svg">
<g filter="url(#filter0_d)">
<g filter="url(#filter1_f)">
<path fill-rule="evenodd" clip-rule="evenodd" d="M105.622 51.8002C105.732 79.7585 83.1567 102.511 55.1999 102.622C27.2415 102.732 4.48863 80.1568 4.37823 52.2C4.26782 24.2417 26.8433 1.48864 54.8001 1.37823C82.7584 1.26783 105.511 23.8435 105.622 51.8002ZM55.1974 102C82.8106 101.891 105.109 79.4174 105 51.8027C104.891 24.1895 82.4173 1.89134 54.8025 2.00039C27.1894 2.10944 4.89134 24.5828 5.00039 52.1975C5.10943 79.8107 27.5827 102.109 55.1974 102Z" fill="black"/>
</g>
<path d="M105 51.8027C105.109 79.4174 82.8106 101.891 55.1974 102C27.5827 102.109 5.10944 79.8107 5.00039 52.1976C4.89134 24.5828 27.1894 2.10944 54.8025 2.0004C82.4173 1.89134 104.891 24.1895 105 51.8027Z" fill="#0D0D0D"/>
<path d="M98.7553 51.7766C98.8507 75.9388 79.3405 95.6022 55.1797 95.6976C31.0176 95.793 11.3541 76.2829 11.2587 52.1222C11.1632 27.96 30.6734 8.29643 54.8342 8.20102C78.9963 8.1056 98.6598 27.6159 98.7553 51.7766Z" fill="#5B7DA6"/>
<path d="M97.1935 51.7638C97.2855 75.0629 78.4722 94.0239 55.1745 94.1159C31.8755 94.2079 12.9143 75.3947 12.8223 52.097C12.7303 28.798 31.5436 9.83674 54.8413 9.74474C78.1404 9.65273 97.1015 28.4661 97.1935 51.7638Z" fill="#182D44"/>
<path d="M53.3582 29.3804C44.0566 29.4171 35.8407 33.9651 30.748 40.9442C28.0299 40.082 25.1539 39.6479 22.1493 39.6597C19.4319 39.6705 16.8243 40.0847 14.3415 40.8137C13.3443 44.4372 12.8084 48.254 12.8239 52.1964C12.9159 75.4956 31.8775 94.308 55.1767 94.216C78.476 94.124 97.2884 75.1625 97.1964 51.8632C97.1825 48.3658 96.7507 44.9586 95.9356 41.7121C92.4756 40.211 88.6605 39.3971 84.6473 39.4129C81.6427 39.4248 78.7702 39.8818 76.059 40.7653C70.9118 33.8265 62.6597 29.3436 53.3581 29.3804L53.3582 29.3804Z" fill="#5B7DA6"/>
<path fill-rule="evenodd" clip-rule="evenodd" d="M40.7793 62.0892C40.6374 62.062 40.4498 62.0212 40.2531 61.9624C39.7221 61.8037 38.2209 61.233 37.8494 59.4781L40.2952 58.9604C40.4077 59.4916 41.0313 59.5977 41.4074 59.6617C41.5285 59.6823 41.624 59.6986 41.6684 59.7232C46.1028 59.7232 50.5371 59.5349 54.9997 59.3454C59.5193 59.1535 64.0678 58.9604 68.6744 58.9604C69.5136 58.9604 69.6661 58.2738 69.7424 57.5872V49.4246C69.7424 46.9072 69.59 44.4661 68.6744 44.3133H66.0807C65.1655 44.2371 64.2504 44.2371 63.3351 44.2371C55.9377 44.3133 48.8445 44.3133 41.5235 44.3133H41.5164C40.601 44.3133 40.2959 46.2205 40.2959 48.204L40.2952 58.9604H37.7959V48.204C37.7959 47.1318 37.8738 45.9098 38.1452 44.8786C38.2772 44.3769 38.5043 43.7227 38.9395 43.1423C39.4148 42.5086 40.275 41.8133 41.5164 41.8133C48.8415 41.8133 55.9239 41.8133 63.3084 41.7373L63.3213 41.7371L63.3782 41.7371C64.2346 41.7371 65.1986 41.7371 66.1809 41.8133H68.8815L69.0858 41.8474C70.4863 42.081 71.1833 43.1367 71.4691 43.7155C71.775 44.3349 71.9285 45.019 72.0197 45.5834C72.207 46.7424 72.2424 48.1573 72.2424 49.4246V57.7257L72.2256 57.8771C72.1883 58.2139 72.0961 59.0449 71.6452 59.8057C71.3844 60.246 70.9878 60.6964 70.4103 61.0213C69.8369 61.3438 69.2314 61.4604 68.6744 61.4604C64.1583 61.4604 59.6904 61.6485 55.1913 61.8395L55.0809 61.8442C50.6353 62.033 46.1561 62.2232 41.6684 62.2232H41.0206L40.7793 62.0892Z" fill="black" fill-opacity="0.72549"/>
<path d="M40.2952 58.9604C40.4439 59.6627 41.4861 59.6219 41.6684 59.7232C50.5938 59.7232 59.5193 58.9604 68.6744 58.9604C69.5136 58.9604 69.6661 58.2738 69.7424 57.5872V49.4246C69.7424 46.9072 69.59 44.4661 68.6744 44.3133H66.0807C65.1652 44.2371 64.2498 44.2371 63.3342 44.2371C55.9344 44.3134 48.84 44.3133 41.5164 44.3133C40.601 44.3133 40.2959 46.2205 40.2959 48.204V58.9604" fill="white"/>
</g>
<rect x="4.5" y="1.5" width="101" height="101" rx="50.5" stroke="white"/>
<defs>
<filter id="filter0_d" x="0" y="1" width="110" height="110" filterUnits="userSpaceOnUse" color-interpolation-filters="sRGB">
<feFlood flood-opacity="0" result="BackgroundImageFix"/>
<feColorMatrix in="SourceAlpha" type="matrix" values="0 0 0 0 0 0 0 0 0 0 0 0 0 0 0 0 0 0 127 0"/>
<feOffset dy="4"/>
<feGaussianBlur stdDeviation="2"/>
<feColorMatrix type="matrix" values="0 0 0 0 0 0 0 0 0 0 0 0 0 0 0 0 0 0 0.25 0"/>
<feBlend mode="normal" in2="BackgroundImageFix" result="effect1_dropShadow"/>
<feBlend mode="normal" in="SourceGraphic" in2="effect1_dropShadow" result="shape"/>
</filter>
<filter id="filter1_f" x="3.38864" y="0.388644" width="103.223" height="103.223" filterUnits="userSpaceOnUse" color-interpolation-filters="sRGB">
<feFlood flood-opacity="0" result="BackgroundImageFix"/>
<feBlend mode="normal" in="SourceGraphic" in2="BackgroundImageFix" result="shape"/>
<feGaussianBlur stdDeviation="0.394843" result="effect1_foregroundBlur"/>
</filter>
</defs>
</svg>
