<svg width="42" height="43" viewBox="0 0 42 43" fill="none" xmlns="http://www.w3.org/2000/svg">
<g clip-path="url(#clip0)">
<g filter="url(#filter0_f)">
<path d="M40.7299 21.0068C40.7299 31.9102 31.8908 40.7487 20.988 40.7487C10.0846 40.7487 1.24609 31.9096 1.24609 21.0068C1.24609 10.1034 10.0852 1.26489 20.988 1.26489C31.8914 1.26489 40.7299 10.104 40.7299 21.0068Z" stroke="#5B7DA6" stroke-width="0.622164"/>
</g>
<path d="M40.7299 21.0068C40.7299 31.9102 31.8908 40.7487 20.988 40.7487C10.0846 40.7487 1.24609 31.9096 1.24609 21.0068C1.24609 10.1034 10.0852 1.26489 20.988 1.26489C31.8914 1.26489 40.7299 10.104 40.7299 21.0068Z" fill="black"/>
<path d="M38.2644 20.9868C38.2644 30.527 30.5305 38.2604 20.9908 38.2604C11.4506 38.2604 3.71719 30.5265 3.71719 20.9868C3.71719 11.4466 11.4512 3.71317 20.9908 3.71317C30.531 3.71317 38.2644 11.4472 38.2644 20.9868Z" fill="#5B7DA6"/>
<path d="M37.6478 20.9793C37.6478 30.1787 30.1901 37.6359 20.9912 37.6359C11.7918 37.6359 4.33463 30.1782 4.33463 20.9793C4.33463 11.7799 11.7923 4.32269 20.9912 4.32269C30.1906 4.32269 37.6478 11.7804 37.6478 20.9793Z" fill="#182D44"/>
<path d="M20.375 12.0732C16.7024 12.0732 13.4513 13.8561 11.4297 16.6038C10.3578 16.2591 9.22294 16.0832 8.0366 16.0832C6.96366 16.0832 5.93346 16.2427 4.952 16.5266C4.55263 17.9558 4.33508 19.4619 4.33508 21.0186C4.33508 30.2181 11.7924 37.6754 20.9919 37.6754C30.1914 37.6754 37.6488 30.2181 37.6488 21.0186C37.6488 19.6376 37.4835 18.2917 37.1668 17.0086C35.803 16.4105 34.2979 16.0832 32.7134 16.0832C31.527 16.0832 30.3921 16.2591 29.3203 16.6038C27.2988 13.8561 24.0476 12.0732 20.375 12.0732H20.375Z" fill="#5B7DA6"/>
<path d="M12.772 22.295C12.772 22.9275 12.8321 23.5601 13.284 23.6504C14.037 23.6504 14.79 23.6805 15.543 23.6805C15.9346 23.6805 16.296 23.6504 16.6876 23.6504C17.1394 23.6504 17.5611 23.6805 17.9527 23.6805C18.1937 23.6805 18.4346 23.6504 18.6756 23.6504V28.629C18.6912 29.4883 19.4336 29.2227 22.3503 29.2227C23.2238 29.2227 23.4648 29.1022 23.4648 28.4396V25.9095C23.4648 25.0661 23.4347 24.2227 23.4046 23.3794H28.9769C29.1275 23.3794 29.1877 22.8974 29.1877 22.5059V21.9938C29.1877 21.1203 29.2178 20.2469 29.2178 19.3734C29.2178 18.9215 29.1274 18.7107 28.7961 18.6805H23.495C23.495 16.8431 23.5251 15.0962 23.5251 13.2589C23.4347 12.8974 22.7721 12.8372 22.0793 12.8372H19.3683C18.5551 12.8372 18.4948 13.0781 18.4647 13.7408V18.5601H13.6154C12.8322 18.5601 12.772 18.8312 12.772 19.6445C12.772 20.277 12.8021 20.8795 12.8021 21.512C12.8021 21.6324 12.8021 21.7529 12.772 21.8734V22.2951" stroke="black" stroke-opacity="0.72549" stroke-width="2.5"/>
<path d="M12.772 22.295C12.772 22.9275 12.8321 23.5601 13.284 23.6504C14.037 23.6504 14.79 23.6805 15.543 23.6805C15.9346 23.6805 16.296 23.6504 16.6876 23.6504C17.1394 23.6504 17.5611 23.6805 17.9527 23.6805C18.1937 23.6805 18.4346 23.6504 18.6756 23.6504V28.629C18.6912 29.4883 19.4336 29.2227 22.3503 29.2227C23.2238 29.2227 23.4648 29.1022 23.4648 28.4396V25.9095C23.4648 25.0661 23.4347 24.2227 23.4046 23.3794H28.9769C29.1275 23.3794 29.1877 22.8974 29.1877 22.5059V21.9938C29.1877 21.1203 29.2178 20.2469 29.2178 19.3734C29.2178 18.9215 29.1274 18.7107 28.7961 18.6805H23.495C23.495 16.8431 23.5251 15.0962 23.5251 13.2589C23.4347 12.8974 22.7721 12.8372 22.0793 12.8372H19.3683C18.5551 12.8372 18.4948 13.0781 18.4647 13.7408V18.5601H13.6154C12.8322 18.5601 12.772 18.8312 12.772 19.6445C12.772 20.277 12.8021 20.8795 12.8021 21.512C12.8021 21.6324 12.8021 21.7529 12.772 21.8734V22.2951" fill="white"/>
</g>
<defs>
<filter id="filter0_f" x="0.145312" y="0.164126" width="41.6853" height="41.6853" filterUnits="userSpaceOnUse" color-interpolation-filters="sRGB">
<feFlood flood-opacity="0" result="BackgroundImageFix"/>
<feBlend mode="normal" in="SourceGraphic" in2="BackgroundImageFix" result="shape"/>
<feGaussianBlur stdDeviation="0.394843" result="effect1_foregroundBlur"/>
</filter>
<clipPath id="clip0">
<rect width="41.984" height="42.004" fill="white"/>
</clipPath>
</defs>
</svg>
