<svg width="152" height="238" viewBox="0 0 152 238" fill="none" xmlns="http://www.w3.org/2000/svg">
<path d="M91.0028 8.54769C79.1108 38.7524 63.5306 67.6434 44.6487 94.5044C35.1321 108.043 24.7337 121.142 17.3064 135.79C9.87909 150.438 5.53792 167.063 8.97797 183.144C11.9277 196.931 20.7 209.693 32.9983 218.082C45.2967 226.471 60.9924 230.398 75.9656 228.829C90.9388 227.26 105.031 220.209 114.535 209.529C124.039 198.849 128.854 184.651 127.708 170.671C126.664 157.942 120.941 145.842 114.218 134.582C107.495 123.323 99.682 112.585 93.8656 100.914C79.4196 71.9273 78.3581 37.6897 91.0026 8.54766" fill="#87BAFB"/>
<path d="M91.0028 8.54769C79.1108 38.7524 63.5306 67.6434 44.6487 94.5044C35.1321 108.043 24.7337 121.142 17.3064 135.79C9.87909 150.438 5.53792 167.063 8.97797 183.144C11.9277 196.931 20.7 209.693 32.9983 218.082C45.2967 226.471 60.9924 230.398 75.9656 228.829C90.9388 227.26 105.031 220.209 114.535 209.529C124.039 198.849 128.854 184.651 127.708 170.671C126.664 157.942 120.941 145.842 114.218 134.582C107.495 123.323 99.682 112.585 93.8656 100.914C79.4196 71.9273 78.3581 37.6897 91.0026 8.54766" fill="url(#paint0_radial)"/>
<path d="M75.3078 55.154C62.7818 79.0021 49.0866 102.305 34.2783 124.967C29.5796 132.158 24.7522 139.314 21.1258 147.035C17.4995 154.756 15.0921 163.136 15.5013 171.626C15.7219 176.203 16.77 180.781 18.7869 185.002C20.8037 189.223 23.8032 193.08 27.6382 196.047C31.4731 199.015 36.1527 201.071 41.0577 201.732C45.9627 202.394 51.079 201.628 55.3426 199.403C59.6907 197.133 63.0379 193.426 65.1337 189.224C67.2295 185.023 68.1237 180.345 68.2164 175.68C68.4016 166.35 65.4801 157.18 63.4906 147.986C56.7215 116.703 60.9239 83.6884 75.3076 55.1532" fill="url(#paint1_linear)"/>
<defs>
<radialGradient id="paint0_radial" cx="0" cy="0" r="1" gradientUnits="userSpaceOnUse" gradientTransform="translate(84.2613 192.213) rotate(-9.53624) scale(99.1433 134.193)">
<stop stop-color="#405789"/>
<stop offset="0.51597" stop-color="#607AB4"/>
<stop offset="1" stop-color="#789AC9" stop-opacity="0"/>
</radialGradient>
<linearGradient id="paint1_linear" x1="7.65987" y1="106.81" x2="87.0438" y2="130.896" gradientUnits="userSpaceOnUse">
<stop stop-color="white"/>
<stop offset="1" stop-color="white" stop-opacity="0"/>
</linearGradient>
</defs>
</svg>
